# xmcd CD database file
#
# Track frame offsets:
#	182
#	14780
#	25762
#	39407
#	57472
#	73167
#	84960
#	98495
#	115075
#	129692
#
# Disc length: 1991 seconds
#
# Revision: 3
# Processed by: cddbd v1.5.2PL0 Copyright (c) Steve Scherf et al.
# Submitted via: CDex 1.60beta1
#
DISCID=8007c50a
DTITLE=Chris Cummings - Chris Cummings
DYEAR=1998
DGENRE=Country
TTITLE0=I Waited
TTITLE1='Til I See You Again
TTITLE2=Almost Always
TTITLE3=Somewhere Inside
TTITLE4=Little Sister's Blue Jeans
TTITLE5=The Kind Of Heart That Breaks
TTITLE6=What About Me
TTITLE7=Minute And A Half
TTITLE8=Sure Enough
TTITLE9=I Never Thought Of You That Way
EXTD=YEAR: 1998
EXTT0=
EXTT1=
EXTT2=
EXTT3=
EXTT4=
EXTT5=
EXTT6=
EXTT7=
EXTT8=
EXTT9=
PLAYORDER=
